<svg xmlns="http://www.w3.org/2000/svg" width="888" height="200" viewBox="0 0 888 200">
  <path fill="none" d="M265.192 153.966h357.615v33.796H265.192z"/>
  <path fill="#88C0D0" d="M267.622 153.967h1.35l21.959 31.004h.09v-31.004h.9v32.129h-1.35l-21.959-31.004h-.09v31.004h-.9v-32.129zm38.429 8.46c6.75 0 10.395 5.805 10.395 12.104 0 6.345-3.645 12.104-10.44 12.104-6.75 0-10.395-5.76-10.395-12.104 0-6.3 3.645-12.104 10.44-12.104zm0 23.308c6.165 0 9.495-5.354 9.495-11.204 0-5.76-3.33-11.205-9.495-11.205-6.255 0-9.54 5.445-9.54 11.205.001 5.85 3.285 11.204 9.54 11.204zm15.031.361h-.9v-23.129h.9v5.715h.09c.855-3.42 3.555-6.435 9.09-6.255v.899c-6.345-.314-9.18 4.636-9.18 9.675v13.095zm28.753-32.129h.9v32.129h-.9v-6.479h-.09c-1.17 4.05-4.545 7.02-9.27 7.02-6.12 0-9.855-5.085-9.855-12.06 0-6.479 3.465-12.149 9.855-12.149 4.905 0 8.189 2.835 9.27 7.02h.09v-15.481zm-9.359 9.359c-6.345 0-8.955 5.896-8.955 11.25 0 5.939 2.97 11.159 8.955 11.159 5.939 0 9.359-5.175 9.359-11.159 0-7.154-3.735-11.25-9.359-11.25z"/>
  <path fill="#2E3440" d="M366.17 153.967h3.6l9.09 13.455 9.404-13.455h3.42l-10.979 15.659 11.609 16.47h-3.69l-9.764-14.175-9.9 14.175h-3.465l11.564-16.56-10.889-15.569zm37.35 11.295h-4.59v20.834h-2.835v-20.834h-3.96v-2.385h3.96v-2.115c-.045-4.005 1.08-6.795 5.625-6.795.81 0 1.484.045 2.385.181v2.43c-.766-.135-1.396-.226-2.07-.226-3.149 0-3.06 1.98-3.104 4.5v2.025h4.59v2.385zm19.079 4.904c-.765-3.465-2.88-5.579-6.569-5.579-5.445 0-8.145 4.949-8.145 9.899 0 4.949 2.699 9.899 8.145 9.899 3.51 0 6.39-2.745 6.749-6.614h2.835c-.765 5.579-4.409 8.999-9.584 8.999-7.11 0-10.979-5.625-10.979-12.284 0-6.66 3.869-12.284 10.979-12.284 4.949 0 8.774 2.654 9.404 7.964h-2.835zm8.64 5.085c.045 4.14 2.204 9.135 7.649 9.135 4.14 0 6.39-2.43 7.29-5.939h2.834c-1.215 5.265-4.274 8.324-10.124 8.324-7.38 0-10.484-5.67-10.484-12.284 0-6.12 3.104-12.284 10.484-12.284 7.47 0 10.439 6.524 10.215 13.049h-17.864zm15.03-2.385c-.136-4.274-2.79-8.279-7.38-8.279-4.635 0-7.2 4.05-7.649 8.279h15.029zm16.245-18.899h25.469v2.61h-11.205v29.519h-3.06v-29.519h-11.204v-2.61zm24.614 21.284c.045 4.14 2.204 9.135 7.649 9.135 4.14 0 6.39-2.43 7.29-5.939h2.834c-1.215 5.265-4.274 8.324-10.124 8.324-7.38 0-10.484-5.67-10.484-12.284 0-6.12 3.104-12.284 10.484-12.284 7.47 0 10.439 6.524 10.215 13.049h-17.864zm15.029-2.385c-.136-4.274-2.79-8.279-7.38-8.279-4.635 0-7.2 4.05-7.649 8.279h15.029zm6.66-9.989h2.609v5.444h.09c1.44-3.734 4.59-5.939 8.775-5.76v2.835c-5.13-.27-8.64 3.51-8.64 8.325v12.374h-2.835v-23.218zm14.175 0h2.609v3.914h.135c1.485-2.789 3.915-4.589 7.605-4.589 3.06 0 5.805 1.484 6.659 4.544 1.396-3.06 4.32-4.544 7.38-4.544 5.085 0 7.694 2.654 7.694 8.145v15.749h-2.835v-15.614c0-3.825-1.439-5.895-5.489-5.895-4.905 0-6.3 4.05-6.3 8.369v13.14h-2.835v-15.749c.045-3.15-1.26-5.76-4.859-5.76-4.905 0-6.885 3.689-6.93 8.55v12.959h-2.835v-23.219zm37.529-8.91h2.835v4.545h-2.835v-4.545zm0 8.91h2.835v23.219h-2.835v-23.219zm8.236 0h2.835v4.005h.09c1.034-2.79 4.14-4.68 7.425-4.68 6.524 0 8.504 3.419 8.504 8.954v14.939h-2.835v-14.489c0-4.005-1.305-7.02-5.895-7.02-4.5 0-7.199 3.42-7.289 7.964v13.545h-2.835v-23.218zm23.938 7.109c.271-5.444 4.095-7.784 9.405-7.784 4.095 0 8.549 1.26 8.549 7.469v12.33c0 1.08.54 1.71 1.665 1.71.315 0 .675-.09.9-.18v2.385c-.63.135-1.08.18-1.845.18-2.88 0-3.33-1.62-3.33-4.05h-.09c-1.98 3.015-4.005 4.725-8.46 4.725-4.274 0-7.784-2.114-7.784-6.795 0-6.524 6.345-6.749 12.464-7.47 2.34-.27 3.645-.585 3.645-3.149 0-3.825-2.744-4.77-6.074-4.77-3.51 0-6.12 1.619-6.21 5.399h-2.835zm15.119 3.42h-.09c-.359.675-1.62.9-2.385 1.035-4.814.854-10.8.81-10.8 5.354 0 2.835 2.521 4.59 5.175 4.59 4.32 0 8.146-2.745 8.1-7.29v-3.689zm8.551-19.439h2.835v32.129h-2.835v-32.129z"/>
  <g fill="#2E3440">
    <path d="M466.56 135.966l-43.392-55.545V65.009l48.091 62.172h25.844V39.636h-43.465l-9.396-9.399h62.257v105.729z"/>
    <path d="M421.44 30.237l43.393 55.541v15.41l-48.091-62.167h-25.843v87.544h43.463l9.399 9.401H381.5V30.237z"/>
  </g>
</svg>
